<mxfile host="65bd71144e">
    <diagram name="ER図" id="VgFtdf4X5T60WYvWRf6P">
        <mxGraphModel dx="488" dy="471" grid="1" gridSize="10" guides="1" tooltips="1" connect="1" arrows="1" fold="1" page="1" pageScale="1" pageWidth="1534" pageHeight="862" math="0" shadow="0">
            <root>
                <mxCell id="0"/>
                <mxCell id="1" parent="0"/>
                <mxCell id="users" value="users&#xa;──────────────&#xa;id (PK)&#xa;password&#xa;name&#xa;role&#xa;created_at&#xa;updated_at" style="shape=swimlane;whiteSpace=wrap;rounded=1;fillColor=#DAE8FC;verticalAlign=top;startSize=30;" parent="1" vertex="1">
                    <mxGeometry x="60" y="60" width="180" height="160" as="geometry">
                        <mxRectangle x="60" y="60" width="160" height="130" as="alternateBounds"/>
                    </mxGeometry>
                </mxCell>
                <mxCell id="projects" value="projects&#xa;──────────────&#xa;id (PK)&#xa;name&#xa;start_date&#xa;end_date&#xa;created_at&#xa;updated_at" style="shape=swimlane;whiteSpace=wrap;rounded=1;fillColor=#D5E8D4;verticalAlign=top;startSize=30;" parent="1" vertex="1">
                    <mxGeometry x="360" y="60" width="180" height="160" as="geometry"/>
                </mxCell>
                <mxCell id="phases" value="phases&#xa;──────────────&#xa;id (PK)&#xa;name&#xa;sort_no&#xa;created_at&#xa;updated_at" style="shape=swimlane;whiteSpace=wrap;rounded=1;fillColor=#FFF2CC;verticalAlign=top;startSize=30;" parent="1" vertex="1">
                    <mxGeometry x="660" y="60" width="180" height="140" as="geometry"/>
                </mxCell>
                <mxCell id="categories" value="categories&#xa;──────────────&#xa;id (PK)&#xa;name&#xa;created_at&#xa;updated_at" style="shape=swimlane;whiteSpace=wrap;rounded=1;fillColor=#F8CECC;verticalAlign=top;startSize=30;" parent="1" vertex="1">
                    <mxGeometry x="60" y="320" width="180" height="120" as="geometry"/>
                </mxCell>
                <mxCell id="statuses" value="statuses&#xa;──────────────&#xa;id (PK)&#xa;name&#xa;color&#xa;created_at&#xa;updated_at" style="shape=swimlane;whiteSpace=wrap;rounded=1;fillColor=#E1D5E7;verticalAlign=top;startSize=30;" parent="1" vertex="1">
                    <mxGeometry x="340" y="480" width="180" height="130" as="geometry"/>
                </mxCell>
                <mxCell id="tasks" value="tasks&#xa;──────────────&#xa;id (PK)&#xa;name&#xa;project_id (FK)&#xa;phase_id (FK)&#xa;category_id (FK)&#xa;user_id (FK)&#xa;status_id (FK)&#xa;progress_rate&#xa;priority&#xa;pre_task_id&#xa;next_task_id" style="shape=swimlane;whiteSpace=wrap;rounded=1;fillColor=#F5F5F5;verticalAlign=top;startSize=30;" parent="1" vertex="1">
                    <mxGeometry x="660" y="300" width="220" height="200" as="geometry"/>
                </mxCell>
                <mxCell id="2" style="endArrow=block;verticalAlign=top;" parent="1" source="tasks" target="users" edge="1">
                    <mxGeometry relative="1" as="geometry"/>
                </mxCell>
                <mxCell id="3" style="endArrow=block;verticalAlign=top;" parent="1" source="tasks" target="projects" edge="1">
                    <mxGeometry relative="1" as="geometry"/>
                </mxCell>
                <mxCell id="4" style="endArrow=block;verticalAlign=top;" parent="1" source="tasks" target="phases" edge="1">
                    <mxGeometry relative="1" as="geometry"/>
                </mxCell>
                <mxCell id="5" style="endArrow=block;verticalAlign=top;" parent="1" source="tasks" target="categories" edge="1">
                    <mxGeometry relative="1" as="geometry"/>
                </mxCell>
                <mxCell id="6" style="endArrow=block;verticalAlign=top;" parent="1" source="tasks" target="statuses" edge="1">
                    <mxGeometry relative="1" as="geometry"/>
                </mxCell>
                <mxCell id="7" style="endArrow=open;dashed=1;verticalAlign=top;" parent="1" source="tasks" target="tasks" edge="1">
                    <mxGeometry relative="1" as="geometry"/>
                </mxCell>
            </root>
        </mxGraphModel>
    </diagram>
</mxfile>